<?xml version="1.0" encoding="utf-8"?>
<!-- Generator: Adobe Illustrator 18.0.0, SVG Export Plug-In . SVG Version: 6.00 Build 0)  -->
<!DOCTYPE svg PUBLIC "-//W3C//DTD SVG 1.1//EN" "http://www.w3.org/Graphics/SVG/1.1/DTD/svg11.dtd">
<svg version="1.1" id="Layer_1" xmlns="http://www.w3.org/2000/svg" xmlns:xlink="http://www.w3.org/1999/xlink" x="0px" y="0px"
	 viewBox="0 0 131 91.8" enable-background="new 0 0 131 91.8" xml:space="preserve">
<path fill="#94978D" d="M26.6,17.9c0,0-17.6,5.3-22.1,21.7S0,73.9,0,73.9h2.9c0,0,0-20.9,6.5-25.4c0.4,7.4,0.8,25.4,0.8,25.4
	l-4.1,3.3V89h11.5V75.1c0,0,10.6-15.5,18.4-15.5s20.4-3.3,22.9,0c2.5,3.3,0.2,25.6,0.2,25.6l-3.7,3.7l0.6,2.7h14.3
	c0,0-3.3-15.9,0-18.4c3.3-2.5,6.1,8.6,5.3,18.4c3.3,0.8,11,0,11,0s0.4-5.3-4.1-5.3c-0.4-3.3-4.1-46.6,10.6-46.6
	c0,0,15.1-0.4,15.3,0.1c0.1,0.5-0.8-4.6,0-5.9c0.8-1.2,17,0.1,21.7-15C134.8,3.7,117.9,0,117.9,0c-0.7,0.7-2.3,3.4-2.3,3.4
	s9.3,4.4,8.9,11.2s-13.1,7-15.9,6c-2.9-1-4.8-11.5-15-11.3C83.3,9.4,80.3,15.7,78.9,17C77.6,18.4,26.6,17.9,26.6,17.9z"/>
<rect x="36.5" y="52.6" fill="#6A2244" width="22.8" height="13.2"/>
<rect x="10.1" y="42.9" fill="#F9AB3C" width="73.4" height="9.7"/>
<rect x="36.5" y="39.5" fill="#CA4B2A" width="22.8" height="13.1"/>
<path fill="#BB7279" d="M29.6,29.9c0,0-0.5,13,19.2,13.1c20.9,0,22.8-13.1,22.8-13.1H29.6z"/>
<path fill="#E4B29E" d="M38.8,29.9c0,0-0.3,6.5,10.8,6.6c11.7,0,12.8-6.6,12.8-6.6H38.8z"/>
<rect x="26.4" y="16.4" fill="#CA4B2A" width="45.9" height="13.5"/>
<path fill="#E4B29E" d="M78.9,18.7c0,0-2.5,15.6,5.5,17.7c8,2.1,10.4-12.8,13.9-15.7S94.9,8.5,88.5,8.5C82,8.5,78.9,18.7,78.9,18.7z
	"/>
<circle fill="#231F20" cx="101.9" cy="19.4" r="1.5"/>
</svg>
