<?xml version="1.0" encoding="utf-8"?>
<!-- Generator: Adobe Illustrator 18.0.0, SVG Export Plug-In . SVG Version: 6.00 Build 0)  -->
<!DOCTYPE svg PUBLIC "-//W3C//DTD SVG 1.1//EN" "http://www.w3.org/Graphics/SVG/1.1/DTD/svg11.dtd">
<svg version="1.1" id="Layer_1" xmlns="http://www.w3.org/2000/svg" xmlns:xlink="http://www.w3.org/1999/xlink" x="0px" y="0px"
	 viewBox="0 0 198.1 198.8" enable-background="new 0 0 198.1 198.8" xml:space="preserve">
<path fill="#5D5E5E" d="M-0.2,58.7l99.3,40.5L58.4,0C58.4,0,39.1,37.3-0.2,58.7z"/>
<path fill="#5D5E5E" d="M57.6,0.1L99.2,99l41.4-98.9C140.6,0.1,100.5,12.9,57.6,0.1z"/>
<path fill="#5D5E5E" d="M139.6,0.1L99.1,99.5l99.2-40.7C198.3,58.8,161,39.5,139.6,0.1z"/>
<path fill="#5D5E5E" d="M198.1,58L99.3,99.6l98.9,41.4C198.1,141,185.4,100.9,198.1,58z"/>
<path fill="#5D5E5E" d="M198.4,140.3L99,99.8l40.7,99.2C139.7,199,159,161.6,198.4,140.3z"/>
<path fill="#5D5E5E" d="M140.5,198.8L98.9,99.9l-41.4,98.9C57.6,198.8,97.6,186.1,140.5,198.8z"/>
<path fill="#5D5E5E" d="M58.5,198.8L99,99.5l-99.2,40.7C-0.1,140.1,37.2,159.5,58.5,198.8z"/>
<path fill="#5D5E5E" d="M0,141l98.9-41.6L0,58C0,58,12.7,98.1,0,141z"/>
<circle fill="#5D5E5E" cx="99.1" cy="99.2" r="6.2"/>
</svg>
